<svg width="729" height="154" viewBox="0 0 729 154" fill="none" xmlns="http://www.w3.org/2000/svg">
<g filter="url(#filter0_d_70_77)">
<rect width="100.752" height="20.1504" rx="6.04508" transform="matrix(-1.31134e-07 -1 -1 1.31134e-07 108.736 122.871)" fill="#08B54F"/>
<rect x="-1.5" y="-1.5" width="97.7519" height="17.1504" rx="4.54508" transform="matrix(-1.31134e-07 -1 -1 1.31134e-07 105.736 119.871)" stroke="white" stroke-width="3"/>
</g>
<g filter="url(#filter1_d_70_77)">
<rect width="100.752" height="20.1504" rx="6.04508" transform="matrix(-1.31134e-07 -1 -1 1.31134e-07 82.5403 139.999)" fill="#0C5CA6"/>
<rect x="-1.5" y="-1.5" width="97.7519" height="17.1504" rx="4.54508" transform="matrix(-1.31134e-07 -1 -1 1.31134e-07 79.5403 136.999)" stroke="white" stroke-width="3"/>
</g>
<g filter="url(#filter2_d_70_77)">
<rect width="100.752" height="20.1504" rx="6.04508" transform="matrix(-1.31134e-07 -1 -1 1.31134e-07 56.3452 106.752)" fill="#0C5CA6"/>
<rect x="-1.5" y="-1.5" width="97.7519" height="17.1504" rx="4.54508" transform="matrix(-1.31134e-07 -1 -1 1.31134e-07 53.3452 103.752)" stroke="white" stroke-width="3"/>
</g>
<g filter="url(#filter3_d_70_77)">
<rect width="100.752" height="20.1504" rx="6.04508" transform="matrix(-1.31134e-07 -1 -1 1.31134e-07 30.1499 122.871)" fill="#08B54F"/>
<rect x="-1.5" y="-1.5" width="97.7519" height="17.1504" rx="4.54508" transform="matrix(-1.31134e-07 -1 -1 1.31134e-07 27.1499 119.871)" stroke="white" stroke-width="3"/>
</g>
<path d="M136.667 112V35H152.617V112H136.667ZM184.348 112V49.08H158.388V35H226.148V49.08H200.298V112H184.348ZM277.574 113.1C271.414 113.1 265.474 111.89 259.754 109.47C254.034 107.05 248.974 103.64 244.574 99.24L251.614 91.1C255.794 95.2067 260.048 98.25 264.374 100.23C268.774 102.21 273.358 103.2 278.124 103.2C281.864 103.2 285.128 102.687 287.914 101.66C290.774 100.56 292.974 99.02 294.514 97.04C296.054 95.06 296.824 92.8233 296.824 90.33C296.824 86.8833 295.614 84.2433 293.194 82.41C290.774 80.5767 286.778 79.1833 281.204 78.23L268.334 76.14C261.294 74.8933 256.014 72.62 252.494 69.32C249.048 66.02 247.324 61.62 247.324 56.12C247.324 51.72 248.498 47.87 250.844 44.57C253.191 41.1967 256.491 38.5933 260.744 36.76C265.071 34.9267 270.058 34.01 275.704 34.01C281.278 34.01 286.741 34.9267 292.094 36.76C297.521 38.52 302.398 41.0867 306.724 44.46L300.344 53.26C292.058 46.9533 283.661 43.8 275.154 43.8C271.781 43.8 268.848 44.2767 266.354 45.23C263.861 46.1833 261.918 47.54 260.524 49.3C259.131 50.9867 258.434 52.9667 258.434 55.24C258.434 58.3933 259.498 60.8133 261.624 62.5C263.751 64.1133 267.271 65.2867 272.184 66.02L284.614 68.11C292.754 69.43 298.731 71.8133 302.544 75.26C306.358 78.7067 308.264 83.4367 308.264 89.45C308.264 94.1433 306.981 98.2867 304.414 101.88C301.848 105.4 298.254 108.15 293.634 110.13C289.014 112.11 283.661 113.1 277.574 113.1ZM336.724 112V81.42L305.704 35H319.124L342.774 71.19L366.424 35H379.294L348.274 81.64V112H336.724ZM408.474 113.1C402.314 113.1 396.374 111.89 390.654 109.47C384.934 107.05 379.874 103.64 375.474 99.24L382.514 91.1C386.694 95.2067 390.948 98.25 395.274 100.23C399.674 102.21 404.258 103.2 409.024 103.2C412.764 103.2 416.028 102.687 418.814 101.66C421.674 100.56 423.874 99.02 425.414 97.04C426.954 95.06 427.724 92.8233 427.724 90.33C427.724 86.8833 426.514 84.2433 424.094 82.41C421.674 80.5767 417.678 79.1833 412.104 78.23L399.234 76.14C392.194 74.8933 386.914 72.62 383.394 69.32C379.948 66.02 378.224 61.62 378.224 56.12C378.224 51.72 379.398 47.87 381.744 44.57C384.091 41.1967 387.391 38.5933 391.644 36.76C395.971 34.9267 400.958 34.01 406.604 34.01C412.178 34.01 417.641 34.9267 422.994 36.76C428.421 38.52 433.298 41.0867 437.624 44.46L431.244 53.26C422.958 46.9533 414.561 43.8 406.054 43.8C402.681 43.8 399.748 44.2767 397.254 45.23C394.761 46.1833 392.818 47.54 391.424 49.3C390.031 50.9867 389.334 52.9667 389.334 55.24C389.334 58.3933 390.398 60.8133 392.524 62.5C394.651 64.1133 398.171 65.2867 403.084 66.02L415.514 68.11C423.654 69.43 429.631 71.8133 433.444 75.26C437.258 78.7067 439.164 83.4367 439.164 89.45C439.164 94.1433 437.881 98.2867 435.314 101.88C432.748 105.4 429.154 108.15 424.534 110.13C419.914 112.11 414.561 113.1 408.474 113.1ZM466.074 112V45.23H439.014V35H504.684V45.23H477.624V112H466.074ZM511.048 112V35H567.808V45.12H522.598V68.22H552.298V78.01H522.598V101.88H568.248V112H511.048ZM576.821 112V35H592.331L616.421 84.28L640.511 35H655.911V112H645.021V49.08L616.311 106.5L587.601 49.08V112H576.821ZM694.337 113.1C688.177 113.1 682.237 111.89 676.517 109.47C670.797 107.05 665.737 103.64 661.337 99.24L668.377 91.1C672.557 95.2067 676.81 98.25 681.137 100.23C685.537 102.21 690.12 103.2 694.887 103.2C698.627 103.2 701.89 102.687 704.677 101.66C707.537 100.56 709.737 99.02 711.277 97.04C712.817 95.06 713.587 92.8233 713.587 90.33C713.587 86.8833 712.377 84.2433 709.957 82.41C707.537 80.5767 703.54 79.1833 697.967 78.23L685.097 76.14C678.057 74.8933 672.777 72.62 669.257 69.32C665.81 66.02 664.087 61.62 664.087 56.12C664.087 51.72 665.26 47.87 667.607 44.57C669.953 41.1967 673.253 38.5933 677.507 36.76C681.833 34.9267 686.82 34.01 692.467 34.01C698.04 34.01 703.503 34.9267 708.857 36.76C714.283 38.52 719.16 41.0867 723.487 44.46L717.107 53.26C708.82 46.9533 700.423 43.8 691.917 43.8C688.543 43.8 685.61 44.2767 683.117 45.23C680.623 46.1833 678.68 47.54 677.287 49.3C675.893 50.9867 675.197 52.9667 675.197 55.24C675.197 58.3933 676.26 60.8133 678.387 62.5C680.513 64.1133 684.033 65.2867 688.947 66.02L701.377 68.11C709.517 69.43 715.493 71.8133 719.307 75.26C723.12 78.7067 725.027 83.4367 725.027 89.45C725.027 94.1433 723.743 98.2867 721.177 101.88C718.61 105.4 715.017 108.15 710.397 110.13C705.777 112.11 700.423 113.1 694.337 113.1Z" fill="#001A33"/>
<defs>
<filter id="filter0_d_70_77" x="79.3854" y="16.9191" width="38.5504" height="119.152" filterUnits="userSpaceOnUse" color-interpolation-filters="sRGB">
<feFlood flood-opacity="0" result="BackgroundImageFix"/>
<feColorMatrix in="SourceAlpha" type="matrix" values="0 0 0 0 0 0 0 0 0 0 0 0 0 0 0 0 0 0 127 0" result="hardAlpha"/>
<feOffset dy="4"/>
<feGaussianBlur stdDeviation="4.6"/>
<feComposite in2="hardAlpha" operator="out"/>
<feColorMatrix type="matrix" values="0 0 0 0 0 0 0 0 0 0 0 0 0 0 0 0 0 0 0.15 0"/>
<feBlend mode="normal" in2="BackgroundImageFix" result="effect1_dropShadow_70_77"/>
<feBlend mode="normal" in="SourceGraphic" in2="effect1_dropShadow_70_77" result="shape"/>
</filter>
<filter id="filter1_d_70_77" x="53.1899" y="34.0466" width="38.5504" height="119.152" filterUnits="userSpaceOnUse" color-interpolation-filters="sRGB">
<feFlood flood-opacity="0" result="BackgroundImageFix"/>
<feColorMatrix in="SourceAlpha" type="matrix" values="0 0 0 0 0 0 0 0 0 0 0 0 0 0 0 0 0 0 127 0" result="hardAlpha"/>
<feOffset dy="4"/>
<feGaussianBlur stdDeviation="4.6"/>
<feComposite in2="hardAlpha" operator="out"/>
<feColorMatrix type="matrix" values="0 0 0 0 0 0 0 0 0 0 0 0 0 0 0 0 0 0 0.15 0"/>
<feBlend mode="normal" in2="BackgroundImageFix" result="effect1_dropShadow_70_77"/>
<feBlend mode="normal" in="SourceGraphic" in2="effect1_dropShadow_70_77" result="shape"/>
</filter>
<filter id="filter2_d_70_77" x="26.9948" y="0.8" width="38.5504" height="119.152" filterUnits="userSpaceOnUse" color-interpolation-filters="sRGB">
<feFlood flood-opacity="0" result="BackgroundImageFix"/>
<feColorMatrix in="SourceAlpha" type="matrix" values="0 0 0 0 0 0 0 0 0 0 0 0 0 0 0 0 0 0 127 0" result="hardAlpha"/>
<feOffset dy="4"/>
<feGaussianBlur stdDeviation="4.6"/>
<feComposite in2="hardAlpha" operator="out"/>
<feColorMatrix type="matrix" values="0 0 0 0 0 0 0 0 0 0 0 0 0 0 0 0 0 0 0.15 0"/>
<feBlend mode="normal" in2="BackgroundImageFix" result="effect1_dropShadow_70_77"/>
<feBlend mode="normal" in="SourceGraphic" in2="effect1_dropShadow_70_77" result="shape"/>
</filter>
<filter id="filter3_d_70_77" x="0.799512" y="16.9191" width="38.5504" height="119.152" filterUnits="userSpaceOnUse" color-interpolation-filters="sRGB">
<feFlood flood-opacity="0" result="BackgroundImageFix"/>
<feColorMatrix in="SourceAlpha" type="matrix" values="0 0 0 0 0 0 0 0 0 0 0 0 0 0 0 0 0 0 127 0" result="hardAlpha"/>
<feOffset dy="4"/>
<feGaussianBlur stdDeviation="4.6"/>
<feComposite in2="hardAlpha" operator="out"/>
<feColorMatrix type="matrix" values="0 0 0 0 0 0 0 0 0 0 0 0 0 0 0 0 0 0 0.15 0"/>
<feBlend mode="normal" in2="BackgroundImageFix" result="effect1_dropShadow_70_77"/>
<feBlend mode="normal" in="SourceGraphic" in2="effect1_dropShadow_70_77" result="shape"/>
</filter>
</defs>
</svg>
