<svg width="24" height="25" viewBox="0 0 24 25" fill="none" xmlns="http://www.w3.org/2000/svg">
<g clip-path="url(#clip0_24_25)">
<path d="M11.9949 21.3578C12.4873 21.3578 12.8992 20.9661 12.8992 20.4839V13.8046H19.3877C19.8699 13.8046 20.292 13.3932 20.292 12.9008C20.292 12.4088 19.8699 12.0068 19.3877 12.0068H12.8992V5.31679C12.8992 4.83507 12.4873 4.44336 11.9949 4.44336C11.5029 4.44336 11.1009 4.83507 11.1009 5.31722V12.0072H4.61229C4.13015 12.0072 3.70801 12.4088 3.70801 12.9008C3.70801 13.3928 4.13015 13.8051 4.61229 13.8051H11.1009V20.4844C11.1009 20.9665 11.5029 21.3586 11.9949 21.3586" fill="black"/>
</g>
<defs>
<clipPath id="clip0_24_25">
<rect width="24" height="24" fill="white" transform="translate(0 0.900391)"/>
</clipPath>
</defs>
</svg>
